<?xml version="1.0" encoding="UTF-8"?>
<svg id="Capa_1" xmlns="http://www.w3.org/2000/svg" version="1.1" viewBox="0 0 2816 1536">
  <!-- Generator: Adobe Illustrator 30.0.0, SVG Export Plug-In . SVG Version: 2.1.1 Build 123)  -->
  <defs>
    <style>
      .st0 {
        fill: #f9f5ed;
      }

      .st1 {
        fill: #165042;
      }

      .st2 {
        fill: #ed765e;
      }
    </style>
  </defs>
  <path class="st0" d="M2816,0v1536H0V0h2816ZM907,980c-25.1,3.57-58-2.65-84,0-.66-1.02-3-2.45-3-3v-108c0-13.4-18.44-38.59-29.05-46.95-46.39-36.57-122.95-2.89-122.95,54.95v103h-87c-9.43,0-27.52-16.17-26.82-27.18l.77-210.88,8.01-13.99,162.03-161.97c11.7-9.7,36.02-1.27,38.94-21.13,4.06-27.67-26.72-24.67-44.48-18.41-29.67,10.46-48.44,41.11-69.39,62.61-39.44,40.47-79.84,80.25-120.91,119.09-21.74,32.75-13.24,74-13.03,110.77.24,43.06-3.79,94.32-.18,136.16,2.8,32.45,28.92,58.98,61.29,62.71,25.66,2.96,83.81,2.7,109.88.31,13.68-1.25,19.43-9.91,20.91-23.09,4.09-36.41-6.27-89.15.88-123.12,7.59-36.04,64.15-35.84,72.66,1.56,4.81,39.67-4.85,89.18.36,127.64,1.33,9.79,9.46,15.82,19.04,16.96,23.28,2.77,90.4,2.57,113.53-.56,31.76-4.3,57.13-35.26,59.59-66.41,4.48-56.88-3.07-120.04-.59-177.55-5.65-39.06-40.88-59.57-63.32-88.23,31.69-35.89,86.56-81.17,60.83-135.29-13.41-28.2-51.33-40.93-79.46-27.88-1.52.7-1.9,3.17-4.07,4.42-11.08,6.39-13.96-2.61-25.03-5.99-68.39-20.85-102.14,63.15-59.7,111.7l46.33,53.75c-47.28,37.65-97.52,49.89-155.59,29.51-12.66-4.44-29.1-19.1-40.39-1.45-13.44,21.01,12.55,31.53,28.39,37.45,55.74,20.83,112.26,13.46,163.14-15.92,6.06-3.5,30.69-23.06,32.67-23.41,4.31-.75,44.03,38.74,48.67,44.85s9.2,14.49,10.1,21.9c6.45,53.18-4.82,119.35-.18,173.92-3.33,13.35-15.07,25.16-28.87,27.13ZM1982,936v-283c0-.21-2.79-3-3-3h-48c-.21,0-3,2.79-3,3v283h54ZM1160,652h-54v284h56v-127c0-2.02,4.77-13.16,6.32-15.68,15.09-24.43,52.74-25.53,66.48.87.89,1.72,5.19,12.12,5.19,12.81v129h56v-137c0-2.64-5.66-23.1-7.04-26.96-15.36-42.78-69.74-55.09-108.31-36.37-9.92,4.82-10.98,13.36-20.65,16.33v-100ZM1415.51,728.51c-123.77,14.46-125.1,219.69,31.57,211.57,83.95-4.35,126.37-100.89,78.55-168.71-25.86-36.67-66.47-47.96-110.12-42.86ZM1888,936v-149c0-2.23-5.41-15.92-6.92-19.08-24.6-51.24-97.24-52.49-132.35-12.07-10.01-6.19-15.55-15.45-26.65-20.93-21.44-10.57-60.12-9.91-79.61,4.54-5.49,4.07-7.34,12.1-14.45,12.53-.76-2.33.99-19.99-.01-19.99h-48v204h52v-127c0-1,6.34-16.3,7.59-18.41,12.17-20.7,48.77-20.99,61.27-.44.78,1.29,5.15,12.16,5.15,12.85v133h54v-127c0-2.5,5.78-15.43,7.62-18.38,12.55-20.25,46.8-21.51,60.06-1.29,1.14,1.74,6.32,12.79,6.32,13.68v130c0,.21,2.79,3,3,3h51ZM2064,732h-58l81.79,200.96c-3.48,12.03-10.24,30.15-22.01,35.83-14.63,7.06-28.69.93-43.79,1.21l2.28,42.74c1.53,4.75,12.32,5.06,16.65,5.35,67.06,4.52,78.86-23.73,102.02-78.15,29.1-68.37,52.75-139.24,81.06-207.94h-58l-49.02,132.01-52.98-132.01ZM2255.46,870.46c-31.39,6.38-30.74,61.38,3.66,67.42,17.35,3.05,32.46.56,41.28-16.48,16.2-31.3-11.83-57.67-44.94-50.94Z"/>
  <path class="st2" d="M907,980c13.8-1.97,25.54-13.78,28.87-27.13-4.64-54.57,6.63-120.75.18-173.92-.9-7.41-5.64-16.03-10.1-21.9s-44.36-45.6-48.67-44.85c-1.98.34-26.61,19.91-32.67,23.41-50.87,29.37-107.4,36.75-163.14,15.92-15.84-5.92-41.83-16.44-28.39-37.45,11.29-17.66,27.74-3,40.39,1.45,58.07,20.38,108.31,8.14,155.59-29.51l-46.33-53.75c-42.44-48.55-8.68-132.55,59.7-111.7,11.08,3.38,13.96,12.38,25.03,5.99,2.16-1.25,2.55-3.72,4.07-4.42,28.13-13.05,66.05-.32,79.46,27.88,25.73,54.12-29.13,99.4-60.83,135.29,22.44,28.65,57.67,49.17,63.32,88.23-2.48,57.52,5.07,120.68.59,177.55-2.45,31.15-27.82,62.11-59.59,66.41-23.13,3.13-90.25,3.33-113.53.56-9.59-1.14-17.71-7.17-19.04-16.96-5.21-38.45,4.45-87.96-.36-127.64-8.51-37.41-65.07-37.61-72.66-1.56-7.15,33.97,3.2,86.71-.88,123.12-1.48,13.17-7.23,21.84-20.91,23.09-26.07,2.39-84.22,2.65-109.88-.31-32.37-3.74-58.48-30.27-61.29-62.71-3.61-41.84.42-93.1.18-136.16-.21-36.77-8.71-78.01,13.03-110.77,41.07-38.84,81.47-78.62,120.91-119.09,20.95-21.5,39.72-52.15,69.39-62.61,17.76-6.26,48.54-9.26,44.48,18.41-2.92,19.86-27.24,11.43-38.94,21.13l-162.03,161.97-8.01,13.99-.77,210.88c-.69,11.01,17.4,27.18,26.82,27.18h87v-103c0-57.84,76.56-91.52,122.95-54.95,10.6,8.36,29.05,33.55,29.05,46.95v108c0,.55,2.34,1.98,3,3,26-2.65,58.9,3.57,84,0ZM837.47,556.46c-5.8,1.18-13.48,7.21-14.97,13.03-7.75,30.29,36.47,72.83,58.22,90.36,18.15-18.23,56.83-52.87,58.86-79.44,1.62-21.2-20.21-32.11-36.62-18.45-9.1,7.57-8.6,18.48-25.82,15.95-14.53-2.13-15.59-26.35-39.68-21.47Z"/>
  <path class="st1" d="M1888,936h-51c-.21,0-3-2.79-3-3v-130c0-.88-5.18-11.94-6.32-13.68-13.26-20.21-47.51-18.96-60.06,1.29-1.83,2.96-7.62,15.88-7.62,18.38v127h-54v-133c0-.69-4.36-11.57-5.15-12.85-12.49-20.55-49.1-20.26-61.27.44-1.24,2.12-7.59,17.42-7.59,18.41v127h-52v-204h48c1,0-.75,17.66.01,19.99,7.11-.43,8.96-8.46,14.45-12.53,19.49-14.45,58.18-15.11,79.61-4.54,11.1,5.48,16.64,14.74,26.65,20.93,35.11-40.42,107.75-39.17,132.35,12.07,1.51,3.15,6.92,16.85,6.92,19.08v149Z"/>
  <path class="st1" d="M1160,652v100c9.67-2.96,10.73-11.51,20.65-16.33,38.57-18.72,92.95-6.4,108.31,36.37,1.38,3.86,7.04,24.32,7.04,26.96v137h-56v-129c0-.69-4.3-11.09-5.19-12.81-13.74-26.4-51.4-25.3-66.48-.87-1.55,2.52-6.32,13.66-6.32,15.68v127h-56v-284h54Z"/>
  <path class="st1" d="M2064,732l52.98,132.01,49.02-132.01h58c-28.32,68.69-51.96,139.56-81.06,207.94-23.16,54.42-34.96,82.67-102.02,78.15-4.33-.29-15.12-.6-16.65-5.35l-2.28-42.74c15.11-.28,29.16,5.85,43.79-1.21,11.77-5.68,18.53-23.8,22.01-35.83l-81.79-200.96h58Z"/>
  <path class="st1" d="M1415.51,728.51c43.65-5.1,84.26,6.19,110.12,42.86,47.83,67.83,5.41,164.36-78.55,168.71-156.68,8.12-155.34-197.12-31.57-211.57ZM1429.56,774.57c-77.95,8.37-56.33,139.55,22.04,116.03,61.32-18.4,45.91-123.33-22.04-116.03Z"/>
  <path class="st1" d="M1982,936h-54v-283c0-.21,2.79-3,3-3h48c.21,0,3,2.79,3,3v283Z"/>
  <path class="st2" d="M2255.46,870.46c33.11-6.73,61.14,19.64,44.94,50.94-8.82,17.04-23.93,19.53-41.28,16.48-34.4-6.05-35.05-61.05-3.66-67.42Z"/>
  <path class="st0" d="M837.47,556.46c24.09-4.89,25.15,19.34,39.68,21.47,17.22,2.52,16.73-8.38,25.82-15.95,16.41-13.66,38.24-2.75,36.62,18.45-2.03,26.57-40.71,61.21-58.86,79.44-21.75-17.53-65.97-60.08-58.22-90.36,1.49-5.82,9.17-11.86,14.97-13.03Z"/>
  <path class="st0" d="M1429.56,774.57c67.94-7.29,83.36,97.63,22.04,116.03-78.36,23.52-99.99-107.67-22.04-116.03Z"/>
</svg>