<?xml version="1.0" encoding="UTF-8"?>
<svg id="Capa_1" xmlns="http://www.w3.org/2000/svg" version="1.1" viewBox="0 0 283 279">
  <!-- Generator: Adobe Illustrator 30.0.0, SVG Export Plug-In . SVG Version: 2.1.1 Build 123)  -->
  <defs>
    <style>
      .st0 {
        fill: #f8f5ec;
      }

      .st1 {
        fill: #de7961;
      }

      .st2 {
        fill: #f7f4ec;
      }
    </style>
  </defs>
  <path class="st2" d="M125,0c.77,2.76-4.63,2.66-5,3-.11.1.4,2.89.5,3,.27.27,1.71-.54,2.2-.42.61.14,1.22,1.83,2.03,2.43.73.54,2.65.9,2.73,1.02.37.52-1.22,3.5.8,3.96,1.88.43,1.41-4.88,2.73-3.49.11.12.59,2.9.55,3.21-.06.38-7.07,3.15-6.04,4.28,2.79,1.11,6.13.05,8.5,1.5-5.85,1.05-12.18,3.67-16.76,7.49-24.79,27.73-56.18,52.23-80.5,80-6.73,7.69-10.77,15.94-11.76,26.24,1.62,32.26-2.09,66.51,0,98.54,1.21,18.65,14.82,33.45,33.75,34.75,17.03,1.17,35.37-.93,52.54,0,4.34-.13,8.72-3.97,9.24-8.26.47-3.88-.07-9.06-.04-12.99.12-14.79-1.04-31.56,0-46.04,1.85-25.45,36.21-26.37,38.04,0,1.33,19.11-1.02,39.76-.03,59.03.97,4.84,4.81,8.08,9.74,8.26,19.78-2.33,53.79,5.39,70.27-6.02.33,1.98,5.88-1.24,6.33-1.67,1.11-1.05,3.64-4.78.17-4.33,5.83-6.52,9.27-15.73,9.5-24.5,1.59.28.88-.8.98-1.74.93-8.22.53-18.14.57-26.45,0-.84.63-1.85.45-2.81,2.25.16,3.78,1.24,2.92,3.68-.29.83-2.64,1.28-2.23,4.11.15,1.04,3.37,2.4,3.58,2.69,1.11,1.57-.72,6.52-.26,8.77.23,1.1,1.27,1.49,1.38,2.06.13.65-.56,1.77-.39,2.91.11.73.94,1.27.91,1.95-.06,1.47-4.07,4.69-.66,5.84,2.14-.3.65-1.96.86-3.13.15-.86,1.5-2.2,1.72-3.22.17-.82-.82-4.47,1.17-4.16-.54,1.58,1.04,3.61.97,4.76-.05.89-1.46,1.93-.97,3.23,2.52.53,5.47-.36,6.02,2.79.11.62-1.71,1.39-1.99,2.99-.45,2.64.99,5.41-.03,8.22,1.6.14,5.47-.69,5.93,1.35.23,1-1.12,2.59.07,3.43.71.5,3.8-1.34,4.43.55,1.17,3.45-2.18,2.06-3.33,2.77-.15.09-1.07,2.32-1.12,2.69-.12,1.08,1.26.74,1.49,1.51.14.49-1.07,5.63,1.29,6.2,3.08.74.89-8.53,4.74-7v26H0V0h125Z"/>
  <path class="st0" d="M246,0c.33,1.23-1.16,1.03-1.42,1.81-.32.94-.36,4.56,1.17,4.19,1.36-2.87,5.1-2.63,2.76-6h5c1.02,1.73-2.17,2.66-1.5,3.49.11.14,1.69.24,2.14.51.55.34.32.96.36.99,1.21.82,4.68.39,6.26.5.56.04,1.65-.28,1.24.74-1.1,2.75-8.25,3.85-7.5-1.24-2.29.56-3.07,3.56-6,3-.07,2.24,4.4,1.82,3.91,4.18-.42,2.01-3.75,1.59-5.04,1.94-2.18.59-1.91,2.36-5.14-.12l-4.23.74c1.09.5,3.46,3.02,4.3,3.12,1.9.21,7.52-1.96,7.92-1.86,1.51.39-.41,5.6,3.11,5.92,2.79.25.96-4.72,1.17-4.92.52.05,3.37.88,3.5,1.01.17.18-.53,1.63-.53,2.26.02,1.66,1.67,4.47-1.15,4.11-1.51-.19-2.13-2.67-4.49.08-2.14,2.49,2.5,2.86,2.67,3.05.56.62-2.22,3.2-.26,5.01.73.68,1.85.3,2.17.56.3.25.14,1.67.71,2.3.41.45,3.04,1.29,3.29,1.71.69,1.17-.77,2.48-.82,3.25-.04.61.69,1.03.75,1.49.08.6-.38,1.21-.25,1.82.46,2.07,4.76,2.62,5.98,1.14.61-.74-.06-1.78.14-2.78.36-1.81,1.22-3.21,1.3-5,.21-.22,3.86,2.32,5.87.37.29-.28,1.73-3.15,1.66-3.58-.05-.35-1.09-.54-1.54-1.02-.9-.96-1.43-3.26-2.15-.68-.46,1.66.18,3.83-1.86,2.67-3.29-1.86,3.19-8.27,5.15-7.69,1.12.33,2.38,2.4,4.86,1.43.24,2.26-.28,1.35-2,1-.89,3.7,3.16,1.19,5.5,1v13c-2.06.14-5.27,1.09-7.17.03-.71-.4.08-2.54-1.57-2.53-1.06,5.61-2.96.28-3.99.51-1.18.26-2.28,3.55-.01,3.99,2.94.57,4.43-.95,6.05-1.02,1.02-.04,1.5.79,2.05.85,1.25.15,3.23-.18,4.66.17v207.5c-3.86-1.53-1.67,7.74-4.74,7-2.36-.57-1.15-5.71-1.29-6.2-.23-.77-1.61-.43-1.49-1.51.04-.37.97-2.6,1.12-2.69,1.15-.72,4.5.68,3.33-2.77-.64-1.89-3.72-.05-4.43-.55-1.19-.84.16-2.43-.07-3.43-.46-2.04-4.33-1.21-5.93-1.35,1.02-2.81-.42-5.58.03-8.22.27-1.6,2.09-2.37,1.99-2.99-.54-3.15-3.49-2.26-6.02-2.79-.49-1.3.92-2.34.97-3.23.07-1.15-1.51-3.18-.97-4.76-1.99-.31-1,3.34-1.17,4.16-.21,1.01-1.57,2.36-1.72,3.22-.21,1.17,1.29,2.83-.86,3.13-3.42-1.15.6-4.37.66-5.84.03-.68-.8-1.22-.91-1.95-.17-1.13.52-2.25.39-2.91-.11-.58-1.15-.96-1.38-2.06-.46-2.25,1.37-7.2.26-8.77-.21-.29-3.43-1.65-3.58-2.69-.4-2.82,1.94-3.27,2.23-4.11.86-2.43-.68-3.52-2.92-3.68.18.96-.45,1.96-.45,2.81-.04,8.31.36,18.23-.57,26.45-.11.94.61,2.02-.98,1.74.02-.7-.54-1.72-.52-2.72.21-13.09-.11-26.19.02-39.28h1c.2-.53-.49-.94-.5-1-.05-.66.06-1.34,0-2,1.5-.29.89.73,1.07,1.65.49,2.55.78,5.02.9,7.6l1.02.75c-.47-1.23,1.01-2.54,1-3.25,0-.66-.8-1.13-.9-1.62-.16-.78.46-1.47.3-2.25-.1-.49-.97-1.01-.87-1.56.16-.94,1.97-1.19,1.97-1.57,0-.7-2.43-2.23-3-2.24l-1.51,1.5c-1.46-17.27,2.87-37.6-5.41-52.84-5.31-9.77-14.28-16.56-22.09-24.16.74-3.74-3.27-5.23-3-9,2.93-3.06,6.12-5.94,9-9,4.47-.74,11.79-7.04,10.5-12,2.75-3.62,5.4-7.67,7.58-11.67.57-1.05,1.7-4.69,1.92-4.83.56-.38.76.79,1-1,.16-1.24.26-2.24.5-3.5,2.29.19,2.15-2,2.84-2.55.82-.67,1.91.19,1.98-2.26.05-1.87-1.09-3.4-1.2-4.52-.1-1.02,1.08-1.61.89-2.66l-3.5.5c.02-.5-.03-1,0-1.5.05-.77,1.65-2.81-.5-2.5-3.49-21.27-26.38-29.07-44.5-19.5-.6-1.05-1.82.41-2.77.48-2.88.21-3.36-1.92-6.23-2.48-.4-.08-1.38.11-1.5,0-.09-.08.06-.71,0-1-.47-.18-.91.5-1,.5-.56.01-1.37-.39-2-.5.25-2.08-1.28-.59-2-.5-.47.06-1.02,0-1.5,0,.42-1.34-1.14-1.46-2-.5-1.78-.01-3.75-.13-5.5,0-.86-.96-2.42-.84-2,.5-.48.05-1.03-.07-1.5,0l-.26-.5c-.92-.17-.79.14-.74,1-.84.12-1.77.44-2.5.5-.05,0-.6-.82-.93-.46-.22.24,0,.9-.07.96-.43.33-2.86,1.41-3.5,1.5-.07,0-.36-.53-.68-.52s-1.7,1.91-1.82,2.02c-.94.91-1.86,1.83-3,2.5-.81.48-2.82-.11-2.5,2.5-2.01,1.95-5.14,6.4-6,9-1,.04-1.87.91-2.8,1-1.23.12-6.47-2.93-7.47-3.99-.79-.85-.62-1.01-.73-2.01-.34-2.96-.29-4.4-1-7.5-.03-.13.76-1.11-.28-2.47-1.18-1.53-2.1-.5-2.22-.53-1.06-.27-1.94-.75-3-1,.19-2.06-1.17-.52-1.5-.5-1.23.08-2.77.08-4,0-.76-.05-2.81-1.65-2.5.5-.32.04-.69-.06-1,0-2.37-1.46-5.71-.4-8.5-1.5-1.03-1.13,5.98-3.91,6.04-4.28.05-.31-.43-3.09-.55-3.21-1.32-1.39-.85,3.92-2.73,3.49-2.02-.46-.43-3.43-.8-3.96-.08-.12-2-.48-2.73-1.02-.81-.6-1.42-2.29-2.03-2.43-.5-.11-1.94.69-2.2.42-.11-.11-.62-2.9-.5-3,.37-.34,5.78-.24,5-3h121ZM272.5,50.5c-.37-.36-8.68-2.26-10-2.5-.2,2.05,2.25,1.17,3.03,1.72s.04,3.82,3.59,3.2c.44-.08,4.18-1.62,3.38-2.41ZM264.44,145.06c-.08-.1-1.7-.27-2.43-.81-.78-.57-1.07-1.92-1.84-2.18-1.3-.44-4,.65-5.66-.07-.19.17,2.12,4.4,2.37,4.49.89.34,7.37.78,7.63.5-.09-.54.19-1.63-.07-1.94ZM259.5,158c-.93-.34-2.46,1.56-1.99,1.99,1.56.23,2.22-.48,1.99-1.99ZM257,169c-1.97-.08-1.5,2.12-1.5,3.5h1.5s0-3.5,0-3.5ZM257,175.5c-1.92-.4-.67,2.9-.99,3.99,1.92.4.67-2.9.99-3.99ZM266.5,203c1.02-.94-2.65-2.49-1.99-.75.24.64,1.66,1.06,1.99.75ZM265.49,218.5c.12-.1,1.52-2.59,1.53-2.74.02-.94-1.31-2.01-2.25-1.75-1.56.44-.61,5.61.72,4.49ZM274.5,230.5h-2s0,.74,0,.74c.53.79,1.07.87,1.99.76v-1.49ZM281.5,238h-2c1.25,2.48-1.02,2.98-1.05,4.74-.03,1.61,1.49,2.65,2.18,1.13s.29-4.14.87-5.88Z"/>
  <path class="st2" d="M257.5,0c-1.02,6.06.2,3.17,2.77,3.01,2.42-.15,3.53,1.95,3.23-3.01h2.5c.32,1.83.2,4.48.6,6.15.22.92,1.08,1.49,1.28,2.22.35,1.3-.54,3.68.87,3.64,3.9-.11.26-3.35.19-4.76-.1-1.82,1.73-3.21,1.54-3.97-.1-.4-2.66-1.43-1.98-3.28h3v3c3.25-.29,6.77,1.45,7-3h4.5v4c-4.35-1.73-3.51,6.51-4,7-.18.18-4.31-.43-4.02,1.26,0,1.22,1.64,1.16,1.96,2.08.41,1.19-.53,2.46-.44,3.66,3.38.42,1.48-.85,1.65-2.68.21-2.37,2.68-3.54,4.85-3.31v7.5c-3.35-1.86-4.37.03-6.99.77-5.52,1.58,1.08-8.94-5.01-7.27.86,2.23-.13,7.12.96,8.78.28.43,3.36,2.73,3.79,2.73,1.61.02,1.61-2.95,3.41-2.47,2.34.63-.68,5.13,3.84,4.45v4c-2.34.19-6.39,2.7-5.5-1,1.72.35,2.24,1.26,2-1-2.48.97-3.74-1.11-4.86-1.43-1.97-.57-8.44,5.84-5.15,7.69,2.04,1.15,1.4-1.01,1.86-2.67.72-2.58,1.25-.28,2.15.68.45.48,1.49.67,1.54,1.02.07.43-1.38,3.3-1.66,3.58-2.01,1.95-5.66-.6-5.87-.37-.07,1.79-.94,3.19-1.3,5-.2.99.47,2.04-.14,2.78-1.22,1.48-5.51.93-5.98-1.14-.13-.6.33-1.21.25-1.82-.06-.47-.79-.88-.75-1.49.05-.77,1.51-2.08.82-3.25-.25-.42-2.88-1.26-3.29-1.71-.57-.62-.41-2.05-.71-2.3-.33-.27-1.44.11-2.17-.56-1.96-1.81.82-4.39.26-5.01-.17-.19-4.81-.56-2.67-3.05,2.36-2.75,2.98-.27,4.49-.08,2.82.36,1.17-2.45,1.15-4.11,0-.63.7-2.08.53-2.26-.13-.13-2.97-.95-3.5-1.01-.2.2,1.63,5.18-1.17,4.92-3.52-.32-1.6-5.53-3.11-5.92-.4-.1-6.02,2.07-7.92,1.86-.84-.1-3.22-2.62-4.3-3.12l4.23-.74c3.22,2.48,2.96.71,5.14.12,1.29-.35,4.62.07,5.04-1.94.49-2.35-3.98-1.93-3.91-4.18,2.93.55,3.71-2.44,6-3-.75,5.09,6.39,3.99,7.5,1.24.41-1.03-.68-.7-1.24-.74-1.57-.11-5.05.33-6.26-.5-.04-.03.19-.66-.36-.99-.45-.27-2.03-.38-2.14-.51-.67-.84,2.52-1.77,1.5-3.49h4ZM261.5,17.5c-.64-.63,1.66-2.65.77-3.49-2.1-2.03-2.07-4.45-5.77-4.01-.83.82,3.21,4.98,3.43,5.86.28,1.1-.71,2.1-.21,3.12,1.15,2.31,4.23-.48,3.27-1.48-.14-.15-1.35.15-1.5,0ZM265.5,12c-.75-.8-2.02,1.56-1.49,2.49,1.15.77,1.76-2.21,1.49-2.49Z"/>
  <path class="st0" d="M283,19.5v7c-4.51.68-1.5-3.82-3.84-4.45-1.8-.48-1.8,2.49-3.41,2.47-.43,0-3.5-2.3-3.79-2.73-1.09-1.66-.1-6.55-.96-8.78,6.09-1.67-.51,8.85,5.01,7.27,2.62-.75,3.63-2.63,6.99-.77Z"/>
  <path class="st0" d="M283,4v8c-2.17-.22-4.64.95-4.85,3.31-.16,1.83,1.74,3.1-1.65,2.68-.09-1.2.85-2.47.44-3.66-.31-.92-1.95-.85-1.96-2.08-.29-1.68,3.84-1.08,4.02-1.26.49-.49-.35-8.74,4-7Z"/>
  <path class="st0" d="M268.5,0c-.68,1.85,1.88,2.88,1.98,3.28.19.76-1.63,2.15-1.54,3.97.07,1.41,3.72,4.66-.19,4.76-1.42.04-.52-2.34-.87-3.64-.2-.73-1.06-1.3-1.28-2.22-.4-1.67-.28-4.32-.6-6.15h2.5Z"/>
  <path class="st2" d="M283,45.5c-1.43-.35-3.41-.02-4.66-.17-.55-.06-1.03-.89-2.05-.85-1.62.07-3.11,1.59-6.05,1.02-2.26-.44-1.17-3.74.01-3.99,1.03-.22,2.93,5.1,3.99-.51,1.65,0,.86,2.13,1.57,2.53,1.9,1.07,5.11.12,7.17-.03v2Z"/>
  <path class="st0" d="M263.5,0c.3,4.96-.81,2.86-3.23,3.01-2.57.16-3.79,3.05-2.77-3.01h6Z"/>
  <path class="st0" d="M278.5,0c-.23,4.46-3.75,2.72-7,3V0h7Z"/>
  <path class="st2" d="M248.5,0c2.34,3.37-1.39,3.13-2.76,6-1.52.37-1.48-3.25-1.17-4.19.26-.78,1.75-.58,1.42-1.81h2.5Z"/>
  <path class="st1" d="M191.5,16c.1,0,.97.49,2,.5.48,0,1.03.06,1.5,0,.36.81,1.39.4,2,.5s1.44.51,2,.5l1,.5c.12.11,1.1-.08,1.5,0-.27,1.24.65,1.02,1.32,1.4.85.48,3.65,2.43,4.05,2.51,1.76.37,2.79-1.47,3.63-1.92,18.12-9.57,41.01-1.77,44.5,19.5.12.75-.38,2.07.5,2.5-.03.5.02,1,0,1.5-.16,4.38-.17,7.12-1,11.5-.24,1.26-.34,2.26-.5,3.5-.96-.17-1.16.05-1,1-.22.15-1.34,3.78-1.92,4.83-2.18,3.99-4.84,8.05-7.58,11.67-3.12,4.1-6.95,8.24-10.5,12-2.88,3.06-6.07,5.94-9,9-.65.68-3.14,2.21-2.96,3.18,1.75,2.18,3.99,3.89,5.96,5.82,7.8,7.6,16.77,14.4,22.09,24.16,8.29,15.24,3.95,35.57,5.41,52.84.03.33-.03.67,0,1,.06.66-.05,1.34,0,2l-.5,1c-.13,13.08.19,26.19-.02,39.28-.02,1,.54,2.03.52,2.72-.23,8.77-3.67,17.98-9.5,24.5-1.47,1.65-4.76,4.8-6.5,6-16.48,11.41-50.48,3.68-70.27,6.02-4.93-.18-8.78-3.42-9.74-8.26-.99-19.28,1.36-39.92.03-59.03-1.83-26.37-36.19-25.45-38.04,0-1.05,14.48.11,31.25,0,46.04-.03,3.93.51,9.11.04,12.99-.52,4.29-4.91,8.13-9.24,8.26-17.17-.93-35.51,1.17-52.54,0-18.93-1.3-32.54-16.1-33.75-34.75-2.09-32.02,1.62-66.28,0-98.54.99-10.3,5.03-18.55,11.76-26.24,24.32-27.78,55.7-52.27,80.5-80,4.58-3.81,10.91-6.44,16.76-7.49.31-.06.68.04,1,0,.77-.11,2.07.37,2.5-.5,1.23.08,2.77.08,4,0,.28.72,1.02.39,1.5.5,1.06.25,1.94.73,3,1l2.5,3c.71,3.1.66,4.54,1,7.5-1.51.15-1.48,2.43-2.5,3.75-3.17,4.09-9.97,2.74-15,5.25-1.15.58-2.36.88-3.26,1.99-18.84,18.75-37.54,37.63-56.24,56.51-1.99,2.01-4.01,3.98-6,6-5.79,5.88-18.57,16.28-21.09,23.66-1.71,4.98-.75,11.74-.88,17.11-.52,21.16-.07,42.79,0,64,.02,8.35-1.78,23.43,2.38,30.58,1.56,2.68,7.3,7.15,10.35,7.15h44.25v-52.25c0-.94,1.04-4.41,1.37-5.63,10.14-37.39,63.27-37.44,73.27-.01.37,1.38,1.36,5.5,1.36,6.64v51.25h44.75c4.75,0,13.28-9.52,12.75-14.75v-85c-.67-3.68-2.45-6.83-4.5-9.75-3.15-4.5-7.12-7.67-11-11.5s-7.72-7.78-11.72-11.53c-.42-.4-.93-.56-1.5-.5-.61.06-8.34,6.25-9.82,7.23-24.75,16.48-50.21,22.63-79.67,15.26-5.71-1.43-15.98-5.06-20.63-8.37-4.89-3.47-5.8-10.23-1.42-14.62,6.52-6.53,13.1-.33,19.78,2.26,23.61,9.16,47.58,4.85,68.45-8.53,1.14-.73,8.52-5.74,8.81-6.2.4-.61.25-.85-.25-1.28-12.45-12.99-29.52-27.92-32.02-46.73-.06-.42,0-.87-.5-1,.04-.49-.02-1,0-1.5.15-4.92-.07-9.74,1.5-14.5.86-2.6,3.99-7.05,6-9,.8-.78,1.99-1.32,2.5-2.5,1.14-.67,2.06-1.59,3-2.5l2.5-1.5c.64-.09,3.07-1.17,3.5-1.5l1-.5c.73-.06,1.66-.38,2.5-.5.46-.07.86-.48,1-.5.47-.07,1.02.05,1.5,0,.87-.09,1.82-.49,2-.5,1.75-.13,3.72-.01,5.5,0ZM179,41.5c-1.55,3.42-1.6,7.38-.48,11.15.12.41.83.35.89.46.18.36-.15.33.59,1.74,1.93,3.69,3.21,5.39,5.51,8.65,3.03,4.3,4.93,6.64,8.5,10.5,2.28,2.47,4.61,4.66,7,7,.98.96,5.21,6.14,6.18,5.96,2.52-2.57,5.28-4.93,7.82-7.46,4.48-4.46,7.24-8.18,11-13,2.81-3.61,4.12-4.68,6.5-9,1.11-2.01,2.47-3.85,3.15-6.1,2.98-9.85-2.82-19.85-13.83-15.33-4.13,1.69-5.15,4.9-8.05,7.45-1.34,1.18-3.48,1.41-3.76,2.99-9.91,1.58-9.87-7.31-16.38-10.37-6.03-2.83-11.92-.58-14.62,5.37Z"/>
  <path class="st0" d="M245,253.5c3.47-.45.94,3.28-.17,4.33-.46.43-6.01,3.65-6.33,1.67,1.74-1.2,5.03-4.35,6.5-6Z"/>
  <path class="st2" d="M149.5,30c.11,1-.06,1.16.73,2.01,1,1.06,6.23,4.11,7.47,3.99.93-.09,1.8-.96,2.8-1-1.57,4.76-1.35,9.58-1.5,14.5-2.91-.18.02,2.36-4.03,1.28-3.24-.86-1.85-2.86-2.57-3.68-.43-.48-2.71.19-1.81-2.75.25-.83,2.65-2.12.58-2.78-2.46-.79-3.36,1.1-4.49,1.29-.86.14-2.18-.68-3.36-.38-.48.12-.08,1.51-1.31,1.01-1.3-4.63-4.53-.15-7.01-2.76-.98-1.03.24-2.32-2.99-1.74,5.03-2.52,11.82-1.17,15-5.25,1.03-1.32.99-3.59,2.5-3.75Z"/>
  <path class="st2" d="M255.5,43.5l3.5-.5c.19,1.06-.99,1.64-.89,2.66.11,1.13,1.26,2.65,1.2,4.52-.07,2.45-1.15,1.6-1.98,2.26-.68.56-.55,2.74-2.84,2.55.83-4.38.84-7.12,1-11.5Z"/>
  <path class="st2" d="M264.44,145.06c.26.31-.03,1.39.07,1.94-.26.28-6.75-.16-7.63-.5-.24-.09-2.56-4.33-2.37-4.49,1.66.72,4.36-.37,5.66.07.77.26,1.06,1.61,1.84,2.18.73.54,2.35.71,2.43.81Z"/>
  <path class="st2" d="M233,88c3.55-3.76,7.38-7.9,10.5-12,1.29,4.96-6.03,11.26-10.5,12Z"/>
  <path class="st2" d="M254.5,183l1.51-1.5c.56.01,3,1.54,3,2.24,0,.37-1.81.63-1.97,1.57-.1.55.77,1.07.87,1.56.16.78-.47,1.48-.3,2.25.11.5.89.96.9,1.62.01.72-1.47,2.02-1,3.25l-1.02-.75c-.13-2.58-.42-5.05-.9-7.6-.18-.93.43-1.95-1.07-1.65-.03-.33.03-.67,0-1Z"/>
  <path class="st2" d="M272.5,50.5c.8.8-2.94,2.34-3.38,2.41-3.55.62-2.82-2.65-3.59-3.2s-3.23.33-3.03-1.72c1.31.25,9.63,2.14,10,2.5Z"/>
  <path class="st2" d="M227,106c-1.98-1.93-4.22-3.64-5.96-5.82-.17-.98,2.31-2.5,2.96-3.18-.27,3.77,3.74,5.26,3,9Z"/>
  <path class="st2" d="M281.5,238c-.58,1.74-.18,4.36-.87,5.88s-2.2.48-2.18-1.13c.03-1.76,2.31-2.26,1.05-4.74h2Z"/>
  <path class="st2" d="M265.49,218.5c-1.33,1.11-2.28-4.05-.72-4.49.94-.27,2.27.81,2.25,1.75,0,.16-1.41,2.64-1.53,2.74Z"/>
  <path class="st2" d="M201.5,18c2.87.57,3.35,2.7,6.23,2.48.94-.07,2.17-1.54,2.77-.48-.83.44-1.87,2.28-3.63,1.92-.4-.08-3.2-2.03-4.05-2.51-.67-.38-1.6-.16-1.32-1.4Z"/>
  <path class="st2" d="M257,169v3.5s-1.5,0-1.5,0c0-1.38-.48-3.57,1.5-3.5Z"/>
  <path class="st2" d="M148.5,22.5l-2.5-3c.12.03,1.05-1,2.22.53,1.04,1.36.25,2.34.28,2.47Z"/>
  <path class="st2" d="M257,175.5c-.33,1.09.92,4.39-.99,3.99.33-1.09-.92-4.39.99-3.99Z"/>
  <path class="st2" d="M169,23.5c-.51,1.18-1.7,1.72-2.5,2.5-.32-2.61,1.69-2.02,2.5-2.5Z"/>
  <path class="st2" d="M259.5,158c.23,1.51-.43,2.22-1.99,1.99-.46-.43,1.07-2.34,1.99-1.99Z"/>
  <path class="st2" d="M274.5,230.5v1.49c-.92.12-1.47.03-1.99-.76v-.74s1.99,0,1.99,0Z"/>
  <path class="st2" d="M255,39.5c2.15-.31.55,1.73.5,2.5-.88-.43-.38-1.75-.5-2.5Z"/>
  <path class="st2" d="M266.5,203c-.33.31-1.75-.11-1.99-.75-.66-1.74,3.01-.19,1.99.75Z"/>
  <path class="st2" d="M137.5,18c-.43.87-1.73.39-2.5.5-.31-2.15,1.74-.55,2.5-.5Z"/>
  <path class="st2" d="M191.5,16c.86-.96,2.42-.84,2,.5-1.03-.01-1.9-.5-2-.5Z"/>
  <path class="st2" d="M195,16.5c.72-.09,2.25-1.58,2,.5-.61-.1-1.64.31-2-.5Z"/>
  <path class="st2" d="M186,16c-.18.01-1.13.41-2,.5-.42-1.34,1.14-1.46,2-.5Z"/>
  <path class="st2" d="M141.5,18c.33-.02,1.69-1.56,1.5.5-.48-.11-1.22.22-1.5-.5Z"/>
  <path class="st2" d="M174.5,19.5l-2.5,1.5c.11-.11,1.49-2.01,1.82-2.02s.62.53.68.52Z"/>
  <path class="st2" d="M182.5,16.5c-.14.02-.54.43-1,.5-.05-.85-.18-1.17.74-1l.26.5Z"/>
  <path class="st2" d="M254,58.5c-.24,1.79-.44.62-1,1-.16-.95.04-1.17,1-1Z"/>
  <path class="st2" d="M179,17.5l-1,.5c.07-.06-.16-.72.07-.96.34-.36.88.47.93.46Z"/>
  <path class="st2" d="M199,17.5c.09,0,.53-.68,1-.5.06.29-.08.92,0,1l-1-.5Z"/>
  <path class="st2" d="M254.5,186c0,.06.7.47.5,1h-1s.5-1,.5-1Z"/>
  <path class="st0" d="M261.5,17.5c.15.15,1.36-.14,1.5,0,.95,1.01-2.13,3.79-3.27,1.48-.51-1.02.49-2.02.21-3.12-.22-.88-4.26-5.04-3.43-5.86,3.7-.44,3.68,1.97,5.77,4.01.89.84-1.41,2.86-.77,3.49Z"/>
  <path class="st0" d="M265.5,12c.26.28-.34,3.27-1.49,2.49-.52-.94.74-3.3,1.49-2.49Z"/>
  <path class="st0" d="M132,39c3.24-.58,2.02.71,2.99,1.74,2.48,2.61,5.72-1.87,7.01,2.76,1.24.5.84-.89,1.31-1.01,1.17-.31,2.5.52,3.36.38,1.13-.19,2.03-2.07,4.49-1.29,2.07.66-.32,1.95-.58,2.78-.9,2.93,1.38,2.27,1.81,2.75.72.82-.67,2.82,2.57,3.68,4.05,1.08,1.12-1.46,4.03-1.28-.02.5.04,1.01,0,1.5-.02.23-1.48,1.2.5,1,2.5,18.82,19.57,33.75,32.02,46.73.51.43.65.66.25,1.28-.29.45-7.67,5.46-8.81,6.2-20.87,13.39-44.84,17.7-68.45,8.53-6.68-2.59-13.26-8.79-19.78-2.26-4.38,4.38-3.47,11.14,1.42,14.62s14.93,6.94,20.63,8.37c29.46,7.37,54.92,1.22,79.67-15.26,1.47-.98,9.21-7.17,9.82-7.23.58-.06,1.08.11,1.5.5,4.01,3.74,7.82,7.68,11.72,11.53-.38,1-1.25,2.63-1.04,3.66.11.5,1.2.57,1.57,1.04.56.75.39,1.82.94,2.58.16.22,3.37,2.46,4.28,3.21,2.16,1.79,2.58,1.22,5.25,1,2.04,2.91,3.82,6.07,4.5,9.75v85c.53,5.23-8,14.75-12.75,14.75h-44.75v-51.25c0-1.15-.99-5.26-1.36-6.64-10-37.43-63.13-37.38-73.27.01-.33,1.22-1.37,4.69-1.37,5.63v52.25h-44.25c-3.05,0-8.79-4.47-10.35-7.15-4.16-7.14-2.36-22.23-2.38-30.58-.06-21.22-.52-42.84,0-64,.13-5.37-.82-12.14.88-17.11,2.53-7.38,15.3-17.78,21.09-23.66,2.86-.04,7.51-2.76,6-6,18.69-18.88,37.4-37.76,56.24-56.51.9-1.11,2.11-1.41,3.26-1.99Z"/>
  <path class="st0" d="M210,46.5c1.29-.21,2.84-1.58,4.21-1.5s2.2,1.45,3.26,1.78c1.17.35,2.57,0,3.53.47,1.24.6.72,2.19,1.11,2.65.98,1.15,7.26,4.9,9.16,6.11.65.41,1.46.43,1.22,1.5-2.38,4.32-3.69,5.39-6.5,9-3.99,1.39-9.86-3.18-12.84-3.39-1.22-.09-3.06,2.31-3.66-1.1,1.56.18,3.46-.05,3.5-2l-6.5-.5c-.48.43,1.59,2.17,1,2.99-.1.14-1.59.15-1.9.61-.23.34-.08,1.24-.36,1.85-.24.52-1.11.91-1.19,1.36-.11.58,1.5,1.9.95,2.67-.07.1-1.84.28-2.28,1.01-.81,1.35.5,3.56,2.53,3.51,2.81-.06,3.46-.52,6.43,1.07,1.97,1.05,3.86,2.4,3.33,4.92-2.54,2.53-5.3,4.89-7.82,7.46-.97.17-5.2-5.01-6.18-5.96.02-3.46-3.95-6.18-7-7-3.57-3.86-5.47-6.2-8.5-10.5.96-.58,4-2.13,4.53-2.72.61-.69.86-2.67,1-2.77.91-.67,8.47,2.99,9.48,1.99.21-.21-.2-3.21-.57-3.43-1.01-.62-3,1.03-2.43-1.57,1.21-.34,2.18,1.26,3.23,1,.62-.15,1.06-1.51.74-1.97-.09-.13-2.87-.92-2.96-1.05-.56-.79,1.36-2.42.98-3.47-2.41.9-2.57-1.17-3.31-1.43-3.53-1.23-6.51,1.27-8.92,1.34-.91.03-4.84-.8-5.44-1.37l-2.82-6.55c2.69-5.95,8.58-8.2,14.62-5.37,6.51,3.06,6.47,11.94,16.38,10.37Z"/>
  <path class="st2" d="M232.5,57.5c.23-1.07-.57-1.09-1.22-1.5-1.9-1.21-8.18-4.96-9.16-6.11-.39-.46.13-2.05-1.11-2.65-.97-.47-2.36-.11-3.53-.47-1.06-.32-1.91-1.69-3.26-1.78s-2.92,1.29-4.21,1.5c.28-1.58,2.42-1.81,3.76-2.99,2.91-2.55,3.92-5.75,8.05-7.45,11.01-4.51,16.81,5.49,13.83,15.33-.68,2.25-2.04,4.09-3.15,6.1Z"/>
  <path class="st2" d="M179,41.5l2.82,6.55c.61.57,4.53,1.39,5.44,1.37,2.42-.07,5.4-2.57,8.92-1.34.74.26.9,2.33,3.31,1.43.38,1.05-1.54,2.69-.98,3.47.09.13,2.87.92,2.96,1.05.31.46-.13,1.82-.74,1.97-1.05.26-2.02-1.34-3.23-1-.57,2.6,1.42.95,2.43,1.57.37.22.78,3.22.57,3.43-1.01,1-8.56-2.66-9.48-1.99-.14.1-.38,2.08-1,2.77-.53.59-3.57,2.14-4.53,2.72-2.29-3.26-3.58-4.96-5.51-8.65-.74-1.41-.41-1.38-.59-1.74-.06-.11-.77-.05-.89-.46-1.11-3.77-1.06-7.73.48-11.15Z"/>
  <path class="st2" d="M215,79.5c.53-2.52-1.36-3.87-3.33-4.92-2.97-1.59-3.62-1.13-6.43-1.07-2.03.04-3.34-2.17-2.53-3.51.44-.73,2.2-.91,2.28-1.01.55-.77-1.06-2.09-.95-2.67.08-.44.95-.84,1.19-1.36.29-.61.14-1.51.36-1.85.31-.46,1.8-.48,1.9-.61.6-.82-1.48-2.56-1-2.99l6.5.5c-.03,1.95-1.93,2.18-3.5,2,.6,3.42,2.44,1.02,3.66,1.1,2.98.21,8.85,4.78,12.84,3.39-3.76,4.82-6.52,8.54-11,13Z"/>
  <path class="st2" d="M230.5,136.5c-2.67.21-3.09.78-5.25-1-.91-.76-4.12-2.99-4.28-3.21-.55-.76-.37-1.83-.94-2.58-.36-.48-1.46-.54-1.57-1.04-.22-1.03.65-2.66,1.04-3.66,3.88,3.83,7.85,7,11,11.5Z"/>
  <path class="st2" d="M66.5,103.5c1.99-2.02,4.01-3.99,6-6,1.51,3.24-3.14,5.96-6,6Z"/>
  <path class="st2" d="M201,81c-2.39-2.34-4.72-4.53-7-7,3.05.82,7.02,3.54,7,7Z"/>
  <path class="st2" d="M159.5,52c-1.98.2-.52-.77-.5-1,.5.13.44.58.5,1Z"/>
</svg>