<?xml version="1.0" encoding="UTF-8"?>
<svg id="Capa_1" xmlns="http://www.w3.org/2000/svg" version="1.1" viewBox="0 0 631 215">
  <!-- Generator: Adobe Illustrator 30.0.0, SVG Export Plug-In . SVG Version: 2.1.1 Build 123)  -->
  <defs>
    <style>
      .st0 {
        fill: #f6f4ec;
      }

      .st1 {
        fill: #254d41;
      }

      .st2 {
        fill: #dd7e66;
      }
    </style>
  </defs>
  <path class="st0" d="M631,0v215H0V0h631ZM42,15.5H15.75c-.05,0-.75.7-.75.75v141.25h27v-61.25c0-4.86,4.23-11.97,7.99-15.01,12.6-10.18,32.01-1.33,32.01,15.01v61.25h26.5v-68.74c-2.06-27.84-24.95-40.5-50.42-33.46-2.7.75-7.66,3.55-10.04,5.49-2.03,1.65-3.63,4.32-6.04,5.21V15.5ZM451.5,157.5V16.25c0-.05-.7-.75-.75-.75h-25c-.05,0-.75.7-.75.75v140.5c0,.05.7.75.75.75h25.75ZM196.33,55.71c-15.56-5.42-38.36-1.36-51.5,8.37-32.1,23.79-25.95,76.23,11.17,91.66,6.14,2.55,10.03,2,15.65,3.27.4.09.13.91,1.06,1.03,7.07.92,21.1-.62,27.43-3.54,2.38-1.1,6-2.55,8.82-4.28,30.94-18.99,33.21-63.88,5.63-86.69-5.34-4.41-13.75-8.24-18.27-9.82ZM275,66.5v-10.25c0-.05-.7-.75-.75-.75h-23.75v102h27v-63.75c0-2.72,2.73-8.31,4.51-10.49,7.27-8.91,24.24-8.28,29.68,2.3.49.96,2.31,5.46,2.31,6.19v65c0,.25,1.33,1.08,1.81,1.11l25.12-.43.08-61.67c.97-14.01,13.21-22.37,26.48-17,5.54,2.24,10.51,9.48,10.51,15.49v63.25h27l.02-66.27c-.91-15.16-7.61-29.05-22.53-34.97-4.61-1.83-15.72-3.95-20.65-2.75-.38.09-.32.93-.68,1-.99.21-2.06-.43-3.19-.29-6.15.77-14.34,5.88-18.98,10.02-1.28,1.14-3.31,4.52-4.7,4.29-4.85-7.88-12.36-11.14-20.9-13.58-.4-.11-.38-.87-.74-.94-2.65-.59-10.8-.92-13.44-.56-.95.13-.65,1.01-1.04,1.06-4.17.5-8.59,1.45-12.62,3.29s-7.03,5.99-10.56,8.69ZM491.75,55.5h-28.25l.62,2.63,39.86,97.68c.58,1.65-.84,2.52-1.23,3.69-3.96,12.07-8.25,17.35-21.99,16-3.17-.31-7.51-3.18-9.73-.13l1.55,21.06c16.35,5.85,34.59,2.38,45.94-11.17,5.94-7.1,8.42-16.22,11.74-24.25,7.16-17.31,14.28-34.2,21.04-51.48,5.57-14.24,11.58-30.27,17.7-45.29,1.13-2.78,3.29-5.6,3.52-8.73h-28.75l-25.26,67-26.74-67ZM592.9,124.15c-23.6,1.75-21.21,37.27,3.35,35.34,22.12-1.74,21.11-37.16-3.35-35.34Z"/>
  <path class="st1" d="M275,66.5c3.53-2.7,6.45-6.81,10.56-8.69s8.45-2.79,12.62-3.29c.39-.05.09-.93,1.04-1.06,2.64-.36,10.79-.03,13.44.56.35.08.34.83.74.94,8.54,2.44,16.05,5.7,20.9,13.58,1.39.23,3.43-3.15,4.7-4.29,4.65-4.14,12.83-9.25,18.98-10.02,1.12-.14,2.2.49,3.19.29.36-.08.3-.91.68-1,4.93-1.2,16.04.92,20.65,2.75,14.92,5.92,21.62,19.81,22.53,34.97l-.02,66.27h-27v-63.25c0-6.01-4.97-13.25-10.51-15.49-13.28-5.37-25.51,2.99-26.48,17l-.08,61.67-25.12.43c-.48-.03-1.81-.85-1.81-1.11v-65c0-.73-1.81-5.24-2.31-6.19-5.44-10.57-22.42-11.21-29.68-2.3-1.78,2.18-4.51,7.77-4.51,10.49v63.75h-27V55.5h23.75c.05,0,.75.7.75.75v10.25Z"/>
  <path class="st1" d="M42,15.5v50.5c2.41-.88,4.01-3.56,6.04-5.21,2.39-1.94,7.34-4.74,10.04-5.49,25.47-7.05,48.35,5.62,50.41,33.46v68.74s-26.49,0-26.49,0v-61.25c0-16.34-19.4-25.18-32.01-15.01-3.76,3.04-7.99,10.14-7.99,15.01v61.25H15V16.25c0-.05.7-.75.75-.75h26.25Z"/>
  <path class="st1" d="M491.75,55.5l26.74,67,25.26-67h28.75c-.23,3.13-2.38,5.95-3.52,8.73-6.12,15.02-12.14,31.05-17.7,45.29-6.76,17.28-13.88,34.17-21.04,51.48-3.32,8.03-5.79,17.16-11.74,24.25-11.35,13.55-29.58,17.02-45.94,11.17l-1.55-21.06c2.22-3.05,6.56-.18,9.73.13,13.75,1.35,18.03-3.93,21.99-16,.38-1.17,1.81-2.03,1.23-3.69l-39.86-97.68-.62-2.63h28.25Z"/>
  <path class="st1" d="M196.33,55.71c4.52,1.57,12.93,5.4,18.27,9.82,27.58,22.82,25.31,67.7-5.63,86.69-2.82,1.73-6.44,3.18-8.82,4.28-6.33,2.92-20.36,4.47-27.43,3.54-.93-.12-.66-.94-1.06-1.03-5.61-1.27-9.51-.72-15.65-3.27-37.12-15.43-43.28-67.87-11.17-91.66,13.14-9.73,35.93-13.79,51.5-8.37ZM177.63,136.84c1.1.5,10.11-1.9,11.86-2.6,27.27-10.89,20.09-60.17-13.23-57.23-27.91,2.46-33.6,44.04-10.1,56.08,1.09.56,7.14,3.34,7.56,3.34,2.35,0,1.22-.81,3.91.41Z"/>
  <path class="st1" d="M451.5,157.5h-25.75c-.05,0-.75-.7-.75-.75V16.25c0-.05.7-.75.75-.75h25c.05,0,.75.7.75.75v141.25Z"/>
  <path class="st2" d="M592.9,124.15c24.46-1.81,25.47,33.61,3.35,35.34-24.55,1.93-26.95-33.59-3.35-35.34Z"/>
  <path class="st0" d="M177.63,136.84c-2.69-1.22-1.56-.41-3.91-.41-.42,0-6.47-2.78-7.56-3.34-23.5-12.04-17.81-53.63,10.1-56.08,33.32-2.93,40.5,46.34,13.23,57.23-1.75.7-10.76,3.1-11.86,2.6Z"/>
</svg>